<svg xmlns="http://www.w3.org/2000/svg" viewBox="0 0 512 512" width="512" height="512">
  <!-- Background -->
  <rect width="512" height="512" rx="64" fill="#1a1a2e"/>
  
  <!-- Grid pattern -->
  <defs>
    <pattern id="grid" x="0" y="0" width="40" height="40" patternUnits="userSpaceOnUse">
      <line x1="0" y1="0" x2="0" y2="40" stroke="#2a2a4e" stroke-width="1"/>
      <line x1="0" y1="0" x2="40" y2="0" stroke="#2a2a4e" stroke-width="1"/>
    </pattern>
  </defs>
  
  <!-- Grid background -->
  <rect x="40" y="40" width="432" height="432" fill="url(#grid)" opacity="0.5"/>
  
  <!-- Main grid lines -->
  <line x1="40" y1="256" x2="472" y2="256" stroke="#3a3a6e" stroke-width="2"/>
  <line x1="256" y1="40" x2="256" y2="472" stroke="#3a3a6e" stroke-width="2"/>
  
  <!-- Soundwave path -->
  <defs>
    <linearGradient id="waveGradient" x1="0%" y1="0%" x2="100%" y2="0%">
      <stop offset="0%" style="stop-color:#00ffff;stop-opacity:1" />
      <stop offset="50%" style="stop-color:#ff00ff;stop-opacity:1" />
      <stop offset="100%" style="stop-color:#ffff00;stop-opacity:1" />
    </linearGradient>
    
    <filter id="glow">
      <feGaussianBlur stdDeviation="4" result="coloredBlur"/>
      <feMerge>
        <feMergeNode in="coloredBlur"/>
        <feMergeNode in="SourceGraphic"/>
      </feMerge>
    </filter>
  </defs>
  
  <!-- Soundwave -->
  <path d="M 60 256 
           Q 100 180, 140 256 
           T 220 256
           Q 260 120, 300 256
           T 380 256
           Q 420 200, 460 256" 
        stroke="url(#waveGradient)" 
        stroke-width="6" 
        fill="none"
        filter="url(#glow)"
        stroke-linecap="round"
        stroke-linejoin="round"/>
  
  <!-- Vertical bars representing tracks -->
  <g opacity="0.8">
    <rect x="90" y="200" width="20" height="112" fill="#00ffff" rx="2"/>
    <rect x="130" y="180" width="20" height="152" fill="#00ff80" rx="2"/>
    <rect x="170" y="220" width="20" height="72" fill="#80ff00" rx="2"/>
    <rect x="210" y="160" width="20" height="192" fill="#ffff00" rx="2"/>
    <rect x="250" y="140" width="20" height="232" fill="#ff8000" rx="2"/>
    <rect x="290" y="170" width="20" height="172" fill="#ff0080" rx="2"/>
    <rect x="330" y="190" width="20" height="132" fill="#ff00ff" rx="2"/>
    <rect x="370" y="210" width="20" height="92" fill="#8000ff" rx="2"/>
    <rect x="410" y="230" width="20" height="52" fill="#0080ff" rx="2"/>
  </g>
  
  <!-- Corner accents -->
  <circle cx="60" cy="60" r="8" fill="#00ffff" opacity="0.8"/>
  <circle cx="452" cy="60" r="8" fill="#ff00ff" opacity="0.8"/>
  <circle cx="60" cy="452" r="8" fill="#ffff00" opacity="0.8"/>
  <circle cx="452" cy="452" r="8" fill="#00ff80" opacity="0.8"/>
</svg>